/* XPM */
static char * gperiodic_xpm[] = {
"32 32 225 2",
"  	c None",
". 	c #E6E6E6",
"+ 	c #E9DDE9",
"@ 	c #E8E2E8",
"# 	c #E9E4E9",
"$ 	c #E5E5E5",
"% 	c #E7E7E7",
"& 	c #EAE8EA",
"* 	c #ECE9EC",
"= 	c #FF58FF",
"- 	c #FF62FF",
"; 	c #FF60FF",
"> 	c #F95BF9",
", 	c #A483A4",
"' 	c #E9EAE9",
") 	c #ECF8EC",
"! 	c #C4FFC4",
"~ 	c #C6FFC6",
"{ 	c #C7FFC7",
"] 	c #BCFFBC",
"^ 	c #FF44FF",
"/ 	c #E735E7",
"( 	c #736373",
"_ 	c #ECECEC",
": 	c #E5F7E5",
"< 	c #A8FFA8",
"[ 	c #AAFFAA",
"} 	c #746374",
"| 	c #FF46FF",
"1 	c #FE43FE",
"2 	c #A9FEA9",
"3 	c #ABFFAB",
"4 	c #B0FFB0",
"5 	c #B830B8",
"6 	c #581758",
"7 	c #631A63",
"8 	c #C033C0",
"9 	c #74AF74",
"0 	c #496D49",
"a 	c #4A6F4A",
"b 	c #84C684",
"c 	c #AB2DAB",
"d 	c #C233C2",
"e 	c #C634C6",
"f 	c #952795",
"g 	c #A9FFA9",
"h 	c #A2F3A2",
"i 	c #3A573A",
"j 	c #A7FBA7",
"k 	c #FF47FF",
"l 	c #AE2EAE",
"m 	c #5E195E",
"n 	c #731E73",
"o 	c #BE32BE",
"p 	c #95DF95",
"q 	c #4B724B",
"r 	c #ACFFAC",
"s 	c #FE62FE",
"t 	c #AA2DAA",
"u 	c #F842F8",
"v 	c #4D144D",
"w 	c #2C422C",
"x 	c #93DC93",
"y 	c #A0F1A0",
"z 	c #94DF94",
"A 	c #DB3ADB",
"B 	c #7A207A",
"C 	c #7C217C",
"D 	c #DC3ADC",
"E 	c #AAFEAA",
"F 	c #A2F4A2",
"G 	c #5E8D5E",
"H 	c #5B885B",
"I 	c #9AE79A",
"J 	c #AEFFAE",
"K 	c #E6E5E6",
"L 	c #FF5CFF",
"M 	c #B2FFB2",
"N 	c #45CA45",
"O 	c #FF45FF",
"P 	c #E836E8",
"Q 	c #B4FFB4",
"R 	c #359A35",
"S 	c #DC4EDC",
"T 	c #AB1FAB",
"U 	c #AE20AE",
"V 	c #A419A4",
"W 	c #6F606F",
"X 	c #E2EFE2",
"Y 	c #5BC15B",
"Z 	c #55BF55",
"` 	c #57BF57",
" .	c #1F691F",
"..	c #E7E5E7",
"+.	c #B9B5B9",
"@.	c #A4AAA4",
"#.	c #A3A9A3",
"$.	c #A3A8A3",
"%.	c #C2C3C2",
"&.	c #DBDADB",
"*.	c #A6A1A6",
"=.	c #A8A2A8",
"-.	c #A9A6A9",
";.	c #E6E6E5",
">.	c #ECE6E5",
",.	c #EBE6E5",
"'.	c #E9E6E5",
").	c #E5E5E6",
"!.	c #E5E7E5",
"~.	c #E5E8E5",
"{.	c #E2E4E6",
"].	c #48D0FC",
"^.	c #4CD0FA",
"/.	c #49CFFA",
"(.	c #8DBECE",
"_.	c #E9EAE6",
":.	c #F4B8F4",
"<.	c #FB8FFB",
"[.	c #FA91FA",
"}.	c #FA90FA",
"|.	c #DD8BDD",
"1.	c #0CC3FF",
"2.	c #00BFFF",
"3.	c #00A8DF",
"4.	c #646A6C",
"5.	c #ECF0EC",
"6.	c #F7A2F7",
"7.	c #FF3FFF",
"8.	c #FF42FF",
"9.	c #FF41FF",
"0.	c #871787",
"a.	c #E1E4E6",
"b.	c #0DC4FF",
"c.	c #00C0FF",
"d.	c #03A6DC",
"e.	c #656B6D",
"f.	c #AE1FAE",
"g.	c #14C5FF",
"h.	c #00BFFE",
"i.	c #00C5FF",
"j.	c #FF43FF",
"k.	c #1AC5FE",
"l.	c #00C1FF",
"m.	c #007DA6",
"n.	c #00B6F2",
"o.	c #00C2FF",
"p.	c #00475E",
"q.	c #00C6FF",
"r.	c #F742F7",
"s.	c #8E258E",
"t.	c #792079",
"u.	c #CD35CD",
"v.	c #C734C7",
"w.	c #E93FE9",
"x.	c #03C0FF",
"y.	c #00B8F5",
"z.	c #003345",
"A.	c #007AA2",
"B.	c #00C4FF",
"C.	c #004C65",
"D.	c #8F258F",
"E.	c #EB3EEB",
"F.	c #BC31BC",
"G.	c #E53DE5",
"H.	c #007FA9",
"I.	c #0090BF",
"J.	c #004961",
"K.	c #FE44FE",
"L.	c #EA3DEA",
"M.	c #6A1C6A",
"N.	c #771F77",
"O.	c #E13BE1",
"P.	c #932693",
"Q.	c #D63AD6",
"R.	c #005471",
"S.	c #0079A0",
"T.	c #004A63",
"U.	c #00AAE1",
"V.	c #004C66",
"W.	c #F541F5",
"X.	c #EE3FEE",
"Y.	c #511551",
"Z.	c #9E299E",
"`.	c #00ADE5",
" +	c #0078A0",
".+	c #00C3FF",
"++	c #009FD2",
"@+	c #006182",
"#+	c #741E74",
"$+	c #B22FB2",
"%+	c #A82CA8",
"&+	c #DD3CDD",
"*+	c #05B0E8",
"=+	c #09ABE1",
"-+	c #09AEE4",
";+	c #0A9BCB",
">+	c #656D70",
",+	c #FBA4FB",
"'+	c #F63AF6",
")+	c #F33AF3",
"!+	c #F039F0",
"~+	c #F13CF1",
"{+	c #192529",
"]+	c #575D60",
"^+	c #595F62",
"/+	c #595F61",
"(+	c #565D5F",
"_+	c #939494",
":+	c #E9ECE9",
"<+	c #D4B4D4",
"[+	c #645664",
"}+	c #665866",
"|+	c #665966",
"1+	c #311831",
"2+	c #EBEBEB",
"3+	c #E9E9E9",
"4+	c #E6E7E6",
"5+	c #CFE3E9",
"6+	c #B0DEEE",
"7+	c #A1DDF1",
"8+	c #BCE0EC",
"9+	c #E7E7E5",
"0+	c #EDD2ED",
"a+	c #EECEEE",
"b+	c #E9DCE9",
"                        . . . . . . . .                         ",
"                  . . . . . . . . . . . . . .                   ",
"              + @ @ @ @ @ @ @ # $ % & & & & & & *               ",
"            = - ; ; ; ; ; ; > , ' ) ! ~ ~ ~ ~ ~ { ]             ",
"          ^ ^ ^ ^ ^ ^ ^ ^ ^ / ( _ : < [ [ [ [ [ [ [ [           ",
"        ^ ^ ^ ^ ^ ^ ^ ^ ^ ^ / } _ : < [ [ [ [ [ [ [ [ [         ",
"      ^ ^ ^ ^ | | ^ 1 ^ ^ ^ / } _ : < [ [ [ 2 3 4 4 3 2 [       ",
"    ^ ^ ^ ^ 5 6 7 8 ^ ^ ^ ^ / } _ : < [ [ [ 3 9 0 a b 3 [ [     ",
"    ^ ^ ^ ^ c d e f ^ ^ ^ ^ / } _ : < [ [ g h i [ [ j [ [ [     ",
"  k ^ ^ ^ ^ l m n o ^ ^ ^ ^ / } _ : < [ [ [ p q r [ [ [ [ [ [   ",
"  s ^ ^ ^ ^ t o u v | ^ ^ ^ / } _ : < [ [ g [ w x y z [ [ [ g   ",
"  ; ^ ^ ^ ^ A B C D ^ ^ ^ ^ / } _ : < [ [ [ E F G H I [ [ [ J   ",
"K L ^ ^ ^ ^ ^ ^ ^ ^ ^ ^ ^ ^ / } _ : < [ [ [ [ [ [ [ [ [ [ [ M N ",
"K L O ^ ^ ^ ^ ^ ^ ^ ^ ^ ^ ^ P } _ : g r r r r r r r r r r r Q R ",
"K S T U U U U U U U U U U U V W _ X Y Z Z Z Z Z Z Z Z Z Z Z `  .",
"..+.@.#.#.#.#.#.#.#.#.#.#.#.$.%.% &.*.=.=.=.=.=.=.=.=.=.=.=.=.-.",
";.>.,.,.,.,.,.,.,.,.,.,.,.,.,.'.).!.~.~.~.~.~.~.~.~.~.~.~.~.~.~.",
"{.].^.^.^.^.^.^.^.^.^.^.^.^./.(._.:.<.[.[.[.[.[.[.[.[.[.[.[.}.|.",
"{.1.2.2.2.2.2.2.2.2.2.2.2.2.3.4.5.6.7.8.9.9.9.9.9.9.9.9.9.9.^ 0.",
"a.b.c.c.c.c.c.c.c.c.c.c.c.c.d.e.5.6.9.^ ^ ^ ^ ^ ^ ^ ^ ^ ^ ^ | f.",
"  g.c.c.c.c.c.c.c.h.i.h.c.c.d.e.5.6.9.^ ^ ^ j.^ ^ ^ ^ j.^ ^ O   ",
"  k.c.c.c.c.l.m.n.o.p.q.c.c.d.e.5.6.9.^ ^ 1 r.s.t.u.v.w.j.^ 1   ",
"  x.c.c.c.h.y.z.A.B.C.i.c.c.d.e.5.6.9.^ ^ ^ D.e O E.F.G.j.^ ^   ",
"    c.c.c.c.H.I.J.i.C.i.c.c.d.e.5.6.9.^ ^ K.L.M.N.O.P.Q.j.^     ",
"    c.c.c.i.R.S.T.U.V.i.c.c.d.e.5.6.9.^ ^ ^ W.O X.Y.Z.Q.j.^     ",
"      c.2.`. +.+++m.@+B.c.c.d.e.5.6.9.^ ^ ^ d n #+$+%+&+j.      ",
"        c.l.o.h.l..+B.h.c.c.d.e.5.6.9.^ ^ 1 ^ | | ^ O ^         ",
"          c.c.c.c.c.c.c.c.c.d.e.5.6.9.^ ^ ^ ^ ^ ^ ^ ^           ",
"            *+=+-+-+-+-+-+-+;+>+5.,+'+)+)+)+)+)+!+~+            ",
"              {+]+^+/+/+/+/+(+_+:+<+[+}+}+}+|+[+1+              ",
"                  2+3+3+3+3+3+% $ 4+3+3+3+3+2+                  ",
"                        5+6+7+8+9+0+a+b+                        "};
